<mxfile host="app.diagrams.net" modified="2021-05-27T02:37:14.378Z" agent="5.0 (Windows NT 10.0; Win64; x64) AppleWebKit/537.36 (KHTML, like Gecko) Chrome/90.0.4430.212 Safari/537.36" etag="6ZK41ox_M7WAe2odGSsT" version="14.7.2" type="github">
  <diagram id="3xiYGP4D8u9KU6OrjMpB" name="Main">
    <mxGraphModel dx="2062" dy="1154" grid="1" gridSize="10" guides="1" tooltips="1" connect="1" arrows="1" fold="1" page="1" pageScale="1" pageWidth="850" pageHeight="1100" math="0" shadow="0">
      <root>
        <mxCell id="oRVOAteWqYKAvFBuzNwo-0" />
        <mxCell id="oRVOAteWqYKAvFBuzNwo-1" parent="oRVOAteWqYKAvFBuzNwo-0" />
        <mxCell id="URBCLcPdWjnrnAv866tr-0" value="" style="whiteSpace=wrap;html=1;rounded=0;shadow=0;labelBackgroundColor=none;strokeColor=#6c8ebf;strokeWidth=1;fillColor=#dae8fc;fontFamily=Verdana;fontSize=12;align=center;comic=1;" vertex="1" parent="oRVOAteWqYKAvFBuzNwo-1">
          <mxGeometry x="20" y="10" width="180" height="1060" as="geometry" />
        </mxCell>
        <mxCell id="7ZfjWne5601yTu2qeVyr-0" value="" style="whiteSpace=wrap;html=1;rounded=0;shadow=0;labelBackgroundColor=none;strokeWidth=1;fillColor=#f5f5f5;fontFamily=Verdana;fontSize=12;align=center;comic=1;strokeColor=#666666;fontColor=#333333;" vertex="1" parent="oRVOAteWqYKAvFBuzNwo-1">
          <mxGeometry x="210" y="10" width="620" height="70" as="geometry" />
        </mxCell>
        <mxCell id="aOxayfAbrHvG5XvGKovj-0" value="PC" style="text;html=1;points=[];align=left;verticalAlign=top;spacingTop=-4;fontSize=14;fontFamily=Verdana" vertex="1" parent="oRVOAteWqYKAvFBuzNwo-1">
          <mxGeometry x="380" y="35" width="60" height="20" as="geometry" />
        </mxCell>
        <mxCell id="aOxayfAbrHvG5XvGKovj-1" value="Xbox" style="text;html=1;points=[];align=left;verticalAlign=top;spacingTop=-4;fontSize=14;fontFamily=Verdana" vertex="1" parent="oRVOAteWqYKAvFBuzNwo-1">
          <mxGeometry x="490" y="35" width="60" height="20" as="geometry" />
        </mxCell>
        <mxCell id="aOxayfAbrHvG5XvGKovj-2" value="Playstation" style="text;html=1;points=[];align=left;verticalAlign=top;spacingTop=-4;fontSize=14;fontFamily=Verdana" vertex="1" parent="oRVOAteWqYKAvFBuzNwo-1">
          <mxGeometry x="600" y="35" width="60" height="20" as="geometry" />
        </mxCell>
        <mxCell id="aOxayfAbrHvG5XvGKovj-3" value="Switch" style="text;html=1;points=[];align=left;verticalAlign=top;spacingTop=-4;fontSize=14;fontFamily=Verdana" vertex="1" parent="oRVOAteWqYKAvFBuzNwo-1">
          <mxGeometry x="730" y="35" width="60" height="20" as="geometry" />
        </mxCell>
        <mxCell id="HpGgj7njIkM0Mk6IABCi-0" value="Criteria and sorting options" style="whiteSpace=wrap;html=1;rounded=0;shadow=0;labelBackgroundColor=none;strokeWidth=1;fontFamily=Verdana;fontSize=12;align=center;comic=1;fillColor=#f5f5f5;strokeColor=#666666;fontColor=#333333;" vertex="1" parent="oRVOAteWqYKAvFBuzNwo-1">
          <mxGeometry x="210" y="100" width="620" height="40" as="geometry" />
        </mxCell>
        <mxCell id="HpGgj7njIkM0Mk6IABCi-1" value="Game 1" style="whiteSpace=wrap;html=1;rounded=0;shadow=0;labelBackgroundColor=none;strokeWidth=1;fillColor=#fff2cc;fontFamily=Verdana;fontSize=12;align=center;comic=1;strokeColor=#d6b656;" vertex="1" parent="oRVOAteWqYKAvFBuzNwo-1">
          <mxGeometry x="220" y="160" width="290" height="270" as="geometry" />
        </mxCell>
        <mxCell id="HpGgj7njIkM0Mk6IABCi-3" value="Game 2" style="whiteSpace=wrap;html=1;rounded=0;shadow=0;labelBackgroundColor=none;strokeWidth=1;fillColor=#fff2cc;fontFamily=Verdana;fontSize=12;align=center;comic=1;strokeColor=#d6b656;" vertex="1" parent="oRVOAteWqYKAvFBuzNwo-1">
          <mxGeometry x="530" y="160" width="290" height="270" as="geometry" />
        </mxCell>
        <mxCell id="HpGgj7njIkM0Mk6IABCi-4" value="Game 3" style="whiteSpace=wrap;html=1;rounded=0;shadow=0;labelBackgroundColor=none;strokeWidth=1;fillColor=#fff2cc;fontFamily=Verdana;fontSize=12;align=center;comic=1;strokeColor=#d6b656;" vertex="1" parent="oRVOAteWqYKAvFBuzNwo-1">
          <mxGeometry x="220" y="450" width="290" height="270" as="geometry" />
        </mxCell>
        <mxCell id="HpGgj7njIkM0Mk6IABCi-5" value="Game 4" style="whiteSpace=wrap;html=1;rounded=0;shadow=0;labelBackgroundColor=none;strokeWidth=1;fillColor=#fff2cc;fontFamily=Verdana;fontSize=12;align=center;comic=1;strokeColor=#d6b656;" vertex="1" parent="oRVOAteWqYKAvFBuzNwo-1">
          <mxGeometry x="530" y="450" width="290" height="270" as="geometry" />
        </mxCell>
        <mxCell id="HpGgj7njIkM0Mk6IABCi-6" value="Game 5" style="whiteSpace=wrap;html=1;rounded=0;shadow=0;labelBackgroundColor=none;strokeWidth=1;fillColor=#fff2cc;fontFamily=Verdana;fontSize=12;align=center;comic=1;strokeColor=#d6b656;" vertex="1" parent="oRVOAteWqYKAvFBuzNwo-1">
          <mxGeometry x="220" y="740" width="290" height="270" as="geometry" />
        </mxCell>
        <mxCell id="HpGgj7njIkM0Mk6IABCi-7" value="Game 6" style="whiteSpace=wrap;html=1;rounded=0;shadow=0;labelBackgroundColor=none;strokeWidth=1;fillColor=#fff2cc;fontFamily=Verdana;fontSize=12;align=center;comic=1;strokeColor=#d6b656;" vertex="1" parent="oRVOAteWqYKAvFBuzNwo-1">
          <mxGeometry x="530" y="740" width="290" height="270" as="geometry" />
        </mxCell>
        <mxCell id="HpGgj7njIkM0Mk6IABCi-8" value="&amp;lt;&amp;lt; Page navigation &amp;gt;&amp;gt;" style="whiteSpace=wrap;html=1;rounded=0;shadow=0;labelBackgroundColor=none;strokeWidth=1;fontFamily=Verdana;fontSize=12;align=center;comic=1;fillColor=#f5f5f5;strokeColor=#666666;fontColor=#333333;" vertex="1" parent="oRVOAteWqYKAvFBuzNwo-1">
          <mxGeometry x="210" y="1030" width="620" height="40" as="geometry" />
        </mxCell>
        <mxCell id="HpGgj7njIkM0Mk6IABCi-10" value="Log in/out" style="whiteSpace=wrap;html=1;rounded=0;shadow=0;labelBackgroundColor=none;strokeWidth=1;fillColor=#e1d5e7;fontFamily=Verdana;fontSize=12;align=center;comic=1;strokeColor=#9673a6;" vertex="1" parent="oRVOAteWqYKAvFBuzNwo-1">
          <mxGeometry x="40" y="1010" width="140" height="40" as="geometry" />
        </mxCell>
        <mxCell id="HpGgj7njIkM0Mk6IABCi-13" value="Bucket List" style="whiteSpace=wrap;html=1;rounded=0;shadow=0;labelBackgroundColor=none;strokeWidth=1;fillColor=#e1d5e7;fontFamily=Verdana;fontSize=12;align=center;comic=1;strokeColor=#9673a6;" vertex="1" parent="oRVOAteWqYKAvFBuzNwo-1">
          <mxGeometry x="40" y="220" width="140" height="40" as="geometry" />
        </mxCell>
        <mxCell id="HpGgj7njIkM0Mk6IABCi-14" value="In Progress" style="whiteSpace=wrap;html=1;rounded=0;shadow=0;labelBackgroundColor=none;strokeWidth=1;fillColor=#e1d5e7;fontFamily=Verdana;fontSize=12;align=center;comic=1;strokeColor=#9673a6;" vertex="1" parent="oRVOAteWqYKAvFBuzNwo-1">
          <mxGeometry x="40" y="280" width="140" height="40" as="geometry" />
        </mxCell>
        <mxCell id="HpGgj7njIkM0Mk6IABCi-15" value="Played" style="whiteSpace=wrap;html=1;rounded=0;shadow=0;labelBackgroundColor=none;strokeWidth=1;fillColor=#e1d5e7;fontFamily=Verdana;fontSize=12;align=center;comic=1;strokeColor=#9673a6;" vertex="1" parent="oRVOAteWqYKAvFBuzNwo-1">
          <mxGeometry x="40" y="340" width="140" height="40" as="geometry" />
        </mxCell>
        <mxCell id="HpGgj7njIkM0Mk6IABCi-16" value="All Games" style="text;html=1;points=[];align=left;verticalAlign=top;spacingTop=-4;fontSize=14;fontFamily=Verdana" vertex="1" parent="oRVOAteWqYKAvFBuzNwo-1">
          <mxGeometry x="240" y="35" width="60" height="20" as="geometry" />
        </mxCell>
        <mxCell id="Z5md4l3hZBdMSqT5e6kT-0" value="Logo" style="whiteSpace=wrap;html=1;rounded=0;shadow=0;labelBackgroundColor=none;strokeWidth=1;fontFamily=Verdana;fontSize=28;align=center;comic=1;fillColor=#e1d5e7;strokeColor=#9673a6;" vertex="1" parent="oRVOAteWqYKAvFBuzNwo-1">
          <mxGeometry x="40" y="35" width="140" height="145" as="geometry" />
        </mxCell>
      </root>
    </mxGraphModel>
  </diagram>
</mxfile>
